<?xml version="1.0" encoding="UTF-8"?>
<svg version="1.1" xmlns="http://www.w3.org/2000/svg" width="1024" height="281">
<path d="M0 0 C13.2 0 26.4 0 40 0 C41.85625 3.3 43.7125 6.6 45.625 10 C50.30115118 18.2944034 55.05219478 26.54010792 59.875 34.75 C65.5049654 44.34502912 70.96027311 54.02799917 76.32373047 63.77441406 C82.09984173 74.25461138 88.05940816 84.60396429 94 95 C94.33 63.65 94.66 32.3 95 0 C108.2 0 121.4 0 135 0 C135 53.13 135 106.26 135 161 C121.8 161 108.6 161 95 161 C89.90599941 152.72224904 84.94617756 144.4913721 80.25 136 C79.03331313 133.81337844 77.81585209 131.6271875 76.59765625 129.44140625 C75.9958252 128.36133301 75.39399414 127.28125977 74.77392578 126.16845703 C72.10844541 121.40757013 69.40158207 116.67080298 66.6875 111.9375 C63.24403367 105.93123203 59.82064515 99.91547371 56.4375 93.875 C51.36578752 84.87449616 46.17624877 75.94079333 41 67 C40.67 98.02 40.34 129.04 40 161 C26.8 161 13.6 161 0 161 C0 107.87 0 54.74 0 0 Z " fill="#060909" transform="translate(12,33)"/>
<path d="M0 0 C13.2 0 26.4 0 40 0 C40.33 21.78 40.66 43.56 41 66 C44.3 61.05 47.6 56.1 51 51 C52.80486751 48.34799781 54.61217478 45.70010601 56.4375 43.0625 C57.36590719 41.71616085 58.29429196 40.36980623 59.22265625 39.0234375 C59.6830127 38.35666992 60.14336914 37.68990234 60.61767578 37.00292969 C62.39811481 34.42314838 64.17671721 31.84214852 65.94711304 29.25546265 C66.84813197 27.95054598 67.75887452 26.65224125 68.68304443 25.36361694 C71.27079304 21.7162071 73.51122416 18.09290346 75.50317383 14.0859375 C82.20848683 1.4070404 82.20848683 1.4070404 88.69360352 -0.99960327 C96.21482377 -2.36646854 103.73542909 -1.7359159 111.3125 -1.1875 C113.61358168 -1.092047 115.91504552 -1.00538027 118.21679688 -0.92773438 C123.8196263 -0.71974328 129.40801314 -0.4033023 135 0 C134.14294466 4.14271044 132.07679172 6.72526262 129.4375 9.9375 C128.43062353 11.19006714 127.42552578 12.44406545 126.421875 13.69921875 C125.59913086 14.72668213 125.59913086 14.72668213 124.75976562 15.77490234 C121.50803039 19.88648876 118.35378742 24.07249788 115.1875 28.25 C110.62908291 34.25648669 106.04773446 40.24164159 101.39575195 46.17602539 C99.11800781 49.08499327 96.85526635 52.00529809 94.59863281 54.93066406 C93.53441925 56.30822579 92.46606212 57.68259657 91.39355469 59.05371094 C89.9099449 60.95961467 88.45189941 62.8823854 87 64.8125 C86.55994629 65.36929443 86.11989258 65.92608887 85.66650391 66.49975586 C84.32530286 68.23078619 84.32530286 68.23078619 83 71 C84.06667049 74.42903189 85.71850895 77.41468071 87.546875 80.4921875 C88.05444336 81.3495752 88.56201172 82.20696289 89.08496094 83.09033203 C89.63442383 84.00927246 90.18388672 84.92821289 90.75 85.875 C91.32782227 86.84679199 91.90564453 87.81858398 92.50097656 88.81982422 C98.28558147 98.52579876 104.16630853 108.17291601 110.05664062 117.81494141 C113.33927413 123.19499627 116.61035405 128.58206191 119.88098145 133.96942139 C120.9668884 135.75796357 122.05324021 137.54623493 123.13964844 139.33447266 C124.47364244 141.53139601 125.80607852 143.72926635 127.13671875 145.92822266 C128.36167697 147.94767029 129.59326816 149.96311204 130.83203125 151.97412109 C131.38246094 152.87340332 131.93289063 153.77268555 132.5 154.69921875 C132.9846875 155.48514404 133.469375 156.27106934 133.96875 157.08081055 C135 159 135 159 135 161 C128.4171819 161.25400497 121.83562916 161.42884147 115.24902344 161.54931641 C113.00993642 161.59954195 110.77117638 161.6677401 108.53320312 161.75439453 C105.31037899 161.87603754 102.09189155 161.93246586 98.8671875 161.9765625 C97.87008759 162.02817535 96.87298767 162.07978821 95.84567261 162.13296509 C92.91688375 162.13531713 90.74859423 162.0234454 88 161 C85.27685434 157.97127599 83.68602885 154.67960589 82 151 C81.08537952 149.38071964 80.15773863 147.76864583 79.2109375 146.16796875 C78.26466807 144.50835775 77.31938568 142.84818365 76.375 141.1875 C75.86646484 140.29675781 75.35792969 139.40601563 74.83398438 138.48828125 C72.10903808 133.71377413 69.39604562 128.93277597 66.6953125 124.14453125 C65.892146 122.72587769 65.892146 122.72587769 65.07275391 121.27856445 C64.04790868 119.46798334 63.0265711 117.6554109 62.00927734 115.84057617 C61.54215332 115.01662354 61.0750293 114.1926709 60.59375 113.34375 C59.98563477 112.26383789 59.98563477 112.26383789 59.36523438 111.16210938 C57.75580159 108.61326517 55.91653621 106.32387653 54 104 C47.53810249 109.25681199 41.18108884 114.58962742 39.83349609 123.18652344 C39.34879917 128.92080336 39.50143205 134.63021156 39.6875 140.375 C39.70452875 142.38277079 39.71563943 144.39060088 39.72070312 146.3984375 C39.7347791 151.27274507 39.86960587 156.12197692 40 161 C26.8 161 13.6 161 0 161 C0 107.87 0 54.74 0 0 Z " fill="#060909" transform="translate(463,33)"/>
<path d="M0 0 C13.13349169 10.13397165 19.89340411 24.76165669 22 41 C22 42.32 22 43.64 22 45 C9.13 45 -3.74 45 -17 45 C-18.32 40.71 -19.64 36.42 -21 32 C-21.99 29.525 -21.99 29.525 -23 27 C-23.66 27 -24.32 27 -25 27 C-25 26.34 -25 25.68 -25 25 C-33.70579805 21.19121335 -43.16931701 19.06142236 -52.375 22.3125 C-55.31503107 23.68113515 -57.50793897 24.98718147 -60 27 C-60.66 27 -61.32 27 -62 27 C-62.27972656 27.56847656 -62.55945313 28.13695312 -62.84765625 28.72265625 C-63.59717312 30.20390484 -64.37466788 31.67143452 -65.18359375 33.12109375 C-71.47643785 44.74619205 -72.51798825 56.57965412 -72.44604492 69.53759766 C-72.4375336 71.8658102 -72.46641548 74.19155885 -72.49804688 76.51953125 C-72.56692352 91.10864587 -70.52157878 106.00016764 -60 117 C-53.288829 121.75060419 -47.32800208 122.24615902 -39.375 122.375 C-38.52292969 122.41238281 -37.67085938 122.44976562 -36.79296875 122.48828125 C-28.98553926 122.59458513 -26.78275869 120.89137934 -19 117 C-18.67 109.08 -18.34 101.16 -18 93 C-26.91 93 -35.82 93 -45 93 C-45 84.09 -45 75.18 -45 66 C-22.89 66 -0.78 66 22 66 C22.165 76.910625 22.33 87.82125 22.5 99.0625 C22.57283203 102.49664307 22.64566406 105.93078613 22.72070312 109.46899414 C22.74407397 112.19935608 22.76445832 114.92974592 22.78125 117.66015625 C22.80215698 118.36248886 22.82306396 119.06482147 22.84460449 119.78843689 C23.17106647 131.34146309 23.17106647 131.34146309 20.2875824 135.42523193 C18.27226652 137.22430249 16.32441954 138.63251925 14 140 C13.413965 140.38935226 12.82792999 140.77870453 12.22413635 141.17985535 C-3.32534598 151.10399577 -20.68150968 154.19614927 -38.8581543 154.29516602 C-40.31528481 154.30662424 -41.77237543 154.32697746 -43.22924805 154.35668945 C-61.50467528 154.72787991 -78.16850571 150.25689941 -91.76855469 137.37402344 C-107.96863113 121.32424591 -113.2741888 101.67854224 -113.8125 79.375 C-113.84746582 78.06901855 -113.88243164 76.76303711 -113.91845703 75.41748047 C-114.41993452 49.81058901 -110.6820539 28.39642496 -94.05078125 8.1171875 C-92 6 -92 6 -89 5 C-89 4.34 -89 3.68 -89 3 C-64.45938835 -15.74687534 -25.85460898 -16.94032048 0 0 Z " fill="#060909" transform="translate(276,42)"/>
<path d="M0 0 C1.56047445 0.00015913 3.12095416 0.00585397 4.68139648 0.01586914 C5.5012352 0.01728409 6.32107391 0.01869904 7.16575623 0.02015686 C9.79470406 0.0257725 12.42356797 0.0383276 15.05249023 0.05102539 C16.8304838 0.05603838 18.60847869 0.06060163 20.38647461 0.06469727 C24.75434569 0.07574701 29.12215371 0.09302208 33.48999023 0.11352539 C36.53493392 5.93193989 38.95287466 11.75962164 41.14233398 17.94555664 C41.64639015 19.34957985 41.64639015 19.34957985 42.16062927 20.78196716 C42.87974586 22.78622819 43.59671339 24.79126137 44.31170654 26.79699707 C46.21584626 32.13683771 48.13729025 37.47045574 50.05639648 42.80493164 C50.43932861 43.87065399 50.82226074 44.93637634 51.21679688 46.03439331 C54.38003781 54.83069254 57.59936288 63.6047825 60.86499023 72.36352539 C61.23782639 73.36461334 61.23782639 73.36461334 61.61819458 74.38592529 C63.57157713 79.62991053 65.53044515 84.87184043 67.48999023 90.11352539 C70.36227411 97.79726451 73.23293419 105.48160595 76.10113525 113.16687012 C77.32587366 116.44628507 78.55310401 119.72475939 79.78051758 123.00317383 C80.55618117 125.08028111 81.33173894 127.15742792 82.10717773 129.23461914 C82.44535522 130.1357695 82.78353271 131.03691986 83.13195801 131.96537781 C86.73549996 141.63357019 90.07880858 151.3672921 93.48999023 161.11352539 C79.29999023 161.11352539 65.10999023 161.11352539 50.48999023 161.11352539 C46.69243103 151.61962737 43.56913107 141.86413805 40.48999023 132.11352539 C23.65999023 131.78352539 6.82999023 131.45352539 -10.51000977 131.11352539 C-11.50000977 134.74352539 -12.49000977 138.37352539 -13.51000977 142.11352539 C-15.49000977 148.38352539 -17.47000977 154.65352539 -19.51000977 161.11352539 C-33.70000977 161.11352539 -47.89000977 161.11352539 -62.51000977 161.11352539 C-59.13483117 149.86293006 -59.13483117 149.86293006 -57.69506836 145.93481445 C-57.36908661 145.04111145 -57.04310486 144.14740845 -56.70724487 143.22662354 C-56.36114166 142.2869574 -56.01503845 141.34729126 -55.65844727 140.37915039 C-55.28744904 139.36487976 -54.91645081 138.35060913 -54.53421021 137.30560303 C-53.32069251 133.99051288 -52.10292711 130.67700142 -50.88500977 127.36352539 C-50.02739864 125.023751 -49.16997962 122.68390618 -48.31274414 120.34399414 C-42.22837669 103.74685565 -36.10515314 87.16407881 -29.96264648 70.58837891 C-26.03221816 59.97592097 -22.13211744 49.35288011 -18.26000977 38.71899414 C-17.8210437 37.51413361 -17.38207764 36.30927307 -16.92980957 35.06790161 C-14.77897056 29.16323699 -12.63134328 23.25743371 -10.48852539 17.34985352 C-9.7145367 15.22286405 -8.94045318 13.0959091 -8.16625977 10.96899414 C-7.80983398 9.98287643 -7.4534082 8.99675873 -7.08618164 7.98075867 C-6.76004883 7.08637589 -6.43391602 6.1919931 -6.09790039 5.27050781 C-5.81386353 4.48769943 -5.52982666 3.70489105 -5.23718262 2.89836121 C-3.94252783 -0.27935127 -3.77803167 0.12219411 0 0 Z M14.48999023 49.11352539 C12.3477801 55.89265613 10.2122143 62.67385351 8.08129883 69.45654297 C7.35529695 71.76464423 6.62776409 74.07226451 5.89868164 76.37939453 C4.85218792 79.69186751 3.81117629 83.00601996 2.77124023 86.32055664 C2.44313354 87.35501419 2.11502686 88.38947174 1.77697754 89.45527649 C1.47666626 90.41604599 1.17635498 91.37681549 0.86694336 92.36669922 C0.60046997 93.21275223 0.33399658 94.05880524 0.05944824 94.93049622 C-0.63621493 97.22132213 -0.63621493 97.22132213 -0.51000977 100.11352539 C10.04999023 100.11352539 20.60999023 100.11352539 31.48999023 100.11352539 C28.42846584 89.50024084 25.24237793 78.92702262 21.98040771 68.3737793 C21.52821932 66.90782092 21.07822882 65.44118279 20.63043213 63.97387695 C19.99206972 61.88436959 19.34557353 59.79754533 18.69702148 57.71118164 C18.13204956 55.87825562 18.13204956 55.87825562 17.55566406 54.00830078 C16.69066942 51.03468104 16.69066942 51.03468104 14.48999023 49.11352539 Z " fill="#060909" transform="translate(929.510009765625,32.886474609375)"/>
<path d="M0 0 C12.54 0 25.08 0 38 0 C42.65373197 11.327008 47.01317748 22.69374616 51.0625 34.25 C55.21122243 46.07644567 59.51654248 57.83514021 63.9375 69.5625 C70.21854711 86.23092927 76.43837947 102.92128015 82.625 119.625 C83.27213455 121.37056686 83.27213455 121.37056686 83.93234253 123.15139771 C91.80933074 144.40021698 91.80933074 144.40021698 95.0859375 153.4609375 C95.46540527 154.50813965 95.84487305 155.5553418 96.23583984 156.63427734 C97 159 97 159 97 161 C82.81 161 68.62 161 54 161 C52.515 156.42125 51.03 151.8425 49.5 147.125 C49.03013672 145.68141113 48.56027344 144.23782227 48.07617188 142.75048828 C47.71072266 141.61853027 47.34527344 140.48657227 46.96875 139.3203125 C46.59169922 138.15773926 46.21464844 136.99516602 45.82617188 135.79736328 C45 133 45 133 45 131 C27.84 131 10.68 131 -7 131 C-7.66 134.3 -8.32 137.6 -9 141 C-10.98 147.6 -12.96 154.2 -15 161 C-29.19 161 -43.38 161 -58 161 C-55.75111713 150.88002708 -55.75111713 150.88002708 -54.109375 146.55078125 C-53.73723877 145.55868652 -53.36510254 144.5665918 -52.98168945 143.54443359 C-52.57523193 142.47789551 -52.16877441 141.41135742 -51.75 140.3125 C-50.84187259 137.89474727 -49.93435536 135.47676529 -49.02734375 133.05859375 C-48.78594162 132.41738586 -48.54453949 131.77617798 -48.29582214 131.11553955 C-45.55862104 123.84360738 -42.87365185 116.55256538 -40.19039917 109.2605896 C-39.30079123 106.84318276 -38.41034471 104.42608603 -37.51977539 102.0090332 C-32.91619826 89.51051798 -28.34133969 77.00158936 -23.77087402 64.49093628 C-15.90757851 42.9716967 -7.95378288 21.48592266 0 0 Z M19 49 C16.71712213 54.91599188 14.72697096 60.87364422 12.86328125 66.93359375 C12.57897751 67.85213638 12.29467377 68.77067902 12.00175476 69.71705627 C11.4065205 71.64199094 10.81244562 73.56728446 10.21948242 75.49291992 C9.30745589 78.45387605 8.39130728 81.41353404 7.47460938 84.37304688 C6.89559185 86.24732125 6.31680732 88.12166762 5.73828125 89.99609375 C5.46333328 90.88453476 5.18838531 91.77297577 4.90510559 92.68833923 C4.52922554 93.91080101 4.52922554 93.91080101 4.14575195 95.15795898 C3.81290947 96.23762184 3.81290947 96.23762184 3.4733429 97.33909607 C2.95432032 98.87244514 2.95432032 98.87244514 3 100 C13.56 100 24.12 100 35 100 C32.20186278 88.32777044 28.90688133 76.92864871 25.25 65.5 C24.73783543 63.88686023 24.22611458 62.27357951 23.71484375 60.66015625 C22.48164503 56.77180207 21.24255071 52.88537527 20 49 C19.67 49 19.34 49 19 49 Z " fill="#060909" transform="translate(360,33)"/>
<path d="M0 0 C95.54464286 0 95.54464286 0 113 17 C125.52037756 30.07242242 127.5096307 43.96450929 127.26953125 61.30078125 C126.85249136 73.93318662 121.66269486 83.42841891 112.71484375 92.25390625 C96.61294257 106.05179556 77.73784121 107.49446291 57.5625 107.1875 C51.766875 107.125625 45.97125 107.06375 40 107 C40 124.82 40 142.64 40 161 C26.8 161 13.6 161 0 161 C0 107.87 0 54.74 0 0 Z M40 31 C40 45.85 40 60.7 40 76 C45.115 76.0825 50.23 76.165 55.5 76.25 C57.09779297 76.28641602 58.69558594 76.32283203 60.34179688 76.36035156 C71.84428055 76.46256538 71.84428055 76.46256538 81.50146484 70.5871582 C86.64944751 64.87276934 87.45356826 59.50839953 87.31640625 52.07421875 C86.7063261 46.14664991 84.42965523 41.83812815 80.8125 37.1875 C72.35572284 30.61000665 64.39789022 30.48400302 53.9375 30.75 C47.0384375 30.87375 47.0384375 30.87375 40 31 Z " fill="#060909" transform="translate(757,33)"/>
<path d="M0 0 C2.68604885 2.54503129 3.64636846 4.93809347 4.5625 8.48046875 C4.39817006 13.24603688 3.57313095 16.74313377 0.5625 20.48046875 C-5.63748125 24.51766585 -11.84691495 24.53142124 -19.00024414 24.390625 C-32.34068885 24.16320414 -44.95283482 25.82743304 -55.25 34.98046875 C-55.971875 35.80546875 -56.69375 36.63046875 -57.4375 37.48046875 C-58.118125 38.22296875 -58.79875 38.96546875 -59.5 39.73046875 C-63.85057017 45.90547157 -66.57351817 52.68488851 -66.53515625 60.2421875 C-66.53032227 61.91958008 -66.53032227 61.91958008 -66.52539062 63.63085938 C-66.51701172 64.79810547 -66.50863281 65.96535156 -66.5 67.16796875 C-66.49548828 68.34681641 -66.49097656 69.52566406 -66.48632812 70.74023438 C-66.47453273 73.65369664 -66.4580727 76.56705738 -66.4375 79.48046875 C-68.58326637 79.50732813 -70.72912645 79.52679963 -72.875 79.54296875 C-74.06996094 79.55457031 -75.26492188 79.56617187 -76.49609375 79.578125 C-79.4375 79.48046875 -79.4375 79.48046875 -80.4375 78.48046875 C-83.06210377 61.45803856 -82.20915608 45.20427633 -72.4375 30.48046875 C-65.21144311 20.81523655 -56.70106778 15.47797715 -45.4375 11.48046875 C-59.30742799 16.13236114 -70.17501245 23.1028136 -77.1875 36.29296875 C-83.32040259 49.67200707 -83.47301614 62.82311961 -81.625 77.23046875 C-81.12738252 82.08058042 -81.12738252 82.08058042 -83.8125 85.54296875 C-85.111875 86.99703125 -85.111875 86.99703125 -86.4375 88.48046875 C-87.16752624 92.14081008 -87.36455447 95.75361525 -87.4375 99.48046875 C-88.4275 99.48046875 -89.4175 99.48046875 -90.4375 99.48046875 C-91.24156791 97.69433316 -92.02999637 95.90115626 -92.8125 94.10546875 C-93.25335937 93.10773438 -93.69421875 92.11 -94.1484375 91.08203125 C-96.95803114 83.23219691 -97.80346843 75.53047401 -97.75 67.23046875 C-97.74262817 65.85967163 -97.74262817 65.85967163 -97.73510742 64.46118164 C-97.40188636 45.04720991 -90.26145184 26.98120418 -76.8984375 12.796875 C-60.15406808 -2.96409494 -20.48199367 -14.55074967 0 0 Z M-41.4375 9.48046875 C-41.4375 9.81046875 -41.4375 10.14046875 -41.4375 10.48046875 C-33.5175 9.98546875 -33.5175 9.98546875 -25.4375 9.48046875 C-25.4375 9.15046875 -25.4375 8.82046875 -25.4375 8.48046875 C-30.88443314 8.38358654 -36.07654667 8.351847 -41.4375 9.48046875 Z " fill="#00ADEF" transform="translate(695.4375,37.51953125)"/>
<path d="M0 0 C0.99 0 1.98 0 3 0 C12.53189667 20.51904474 12.26888224 42.47711539 4.8125 63.6875 C-1.49943253 79.04339556 -11.98747454 90.86727167 -27 98 C-42.55426876 104.34627632 -64.5551429 109.25690778 -81 103 C-85.61746072 100.98495972 -89.01663478 98.89433289 -91.125 94.1875 C-92.41511774 89.78445302 -91.88063783 86.14846579 -90 82 C-87.42362127 78.62405546 -84.97795488 77.33294211 -81 76 C-78.08081055 75.71289062 -78.08081055 75.71289062 -74.88671875 75.65625 C-73.1377832 75.61177734 -73.1377832 75.61177734 -71.35351562 75.56640625 C-70.14373047 75.54449219 -68.93394531 75.52257812 -67.6875 75.5 C-53.83334556 75.24661579 -41.42162503 73.86550526 -30.85546875 64.05859375 C-22.50671106 54.7958668 -19.66031236 44.24146913 -20.1640625 32.01953125 C-20.39041988 28.34198117 -20.68186712 24.67076402 -21 21 C-18.03878992 20.14619572 -15.3912356 19.86482236 -12.3125 19.875 C-11.52488281 19.87242188 -10.73726562 19.86984375 -9.92578125 19.8671875 C-8 20 -8 20 -7 21 C-4.15114568 36.71993714 -4.90711708 52.93837636 -13.25 66.875 C-20.32358484 77.03117866 -27.921691 82.02098472 -39 87 C-25.33753269 82.5684065 -16.90883145 75.78309169 -10 63 C-6.07296902 54.61043383 -4.8308204 47.50950424 -4.875 38.3125 C-4.8740332 37.41781006 -4.87306641 36.52312012 -4.87207031 35.60131836 C-4.8904408 31.01913385 -5.07570497 26.60367062 -5.75 22.0625 C-6.20797545 18.55341786 -6.13880818 18.22209309 -4.125 15 C-3.073125 14.01 -3.073125 14.01 -2 13 C-0.80396596 10.60793192 -0.9309806 9.15724705 -1 6.5 C-1.11111111 2.22222222 -1.11111111 2.22222222 0 0 Z M-52.25 88.9375 C-53.51328125 89.13214844 -54.7765625 89.32679688 -56.078125 89.52734375 C-57.04234375 89.68332031 -58.0065625 89.83929688 -59 90 C-59 90.33 -59 90.66 -59 91 C-52.64012196 91.20190089 -47.14778871 90.6277833 -41 89 C-44.89060419 87.5950596 -48.23092362 88.30486761 -52.25 88.9375 Z " fill="#00ADEF" transform="translate(727,89)"/>
<path d="M0 0 C6.48668149 5.74251153 10.07914798 13.38873921 10.79296875 21.93359375 C11.43605013 32.69610659 9.71394437 41.15993952 3.04296875 49.80859375 C-4.89021206 58.3646276 -13.9817194 61.93855973 -25.39453125 63.18359375 C-30.88300933 62.60585922 -36.24022581 60.79971827 -40.7265625 57.51171875 C-42.46391225 55.10700609 -42.39054116 53.31178748 -42.39453125 50.37109375 C-42.41386719 49.42363281 -42.43320312 48.47617188 -42.453125 47.5 C-41.78691132 43.88565967 -40.95724764 42.95290622 -37.95703125 40.80859375 C-33.96267101 39.25807408 -29.82428481 38.21035433 -25.69140625 37.09765625 C-24.85867188 36.85789063 -24.0259375 36.618125 -23.16796875 36.37109375 C-22.40790527 36.16613281 -21.6478418 35.96117187 -20.86474609 35.75 C-18.37483775 34.52129683 -17.89567511 33.38165943 -16.95703125 30.80859375 C-16.24467148 26.17825523 -16.81468593 23.50138343 -19.45703125 19.74609375 C-22.30730729 16.24432604 -25.49388212 13.65479345 -29.22265625 11.1328125 C-30.95703125 9.80859375 -30.95703125 9.80859375 -32.95703125 6.80859375 C-33.74422375 -0.1636827 -33.74422375 -0.1636827 -30.70703125 -4.12890625 C-21.45864023 -11.06519952 -8.52792041 -6.05255944 0 0 Z " fill="#00ADEF" transform="translate(693.95703125,98.19140625)"/>
<path d="M0 0 C2.375 1.5625 2.375 1.5625 4 4 C4.62569219 7.45007845 4.84653975 10.58755096 4 14 C-0.46512672 19.81563764 -5.53652097 20.38359636 -12.40625 21.8125 C-16.50295036 23.16619229 -18.32701096 24.6499211 -21 28 C-21.65880751 32.02604587 -21.35179182 34.24844476 -19.625 37.9375 C-16.83267283 41.7010714 -12.95644639 44.37400842 -9.2421875 47.16796875 C-6.73250824 49.21856034 -5.18249944 50.847707 -4.6640625 54.12109375 C-4.55833381 60.39080525 -4.55833381 60.39080525 -6.8125 63.5 C-11.53252122 66.73658598 -16.48809716 66.54202923 -22 66 C-31.54807689 63.68571544 -39.05393587 59.48484051 -44.375 51.125 C-49.31177077 42.13685757 -50.49315949 32.92988386 -47.875 22.9375 C-46.10374852 17.65685306 -43.42863612 13.36298008 -40 9 C-39.49726562 8.35933594 -38.99453125 7.71867187 -38.4765625 7.05859375 C-29.13548354 -3.48999053 -12.3503464 -7.15677588 0 0 Z " fill="#00ADEF" transform="translate(679,69)"/>
<path d="M0 0 C25.74 0 51.48 0 78 0 C78 6.6 78 13.2 78 20 C69.51551315 20.22638301 61.03339156 20.40962607 52.54669094 20.51812172 C48.60542124 20.57020868 44.66633254 20.64077866 40.72631836 20.75439453 C36.92004753 20.86346047 33.1158664 20.92292007 29.30815315 20.94877243 C27.85944777 20.96718054 26.41085075 21.00313444 24.96304131 21.05730057 C13.74169129 21.46022832 13.74169129 21.46022832 9.68460083 18.05877686 C7.77373807 15.43533189 6.39491043 12.93407114 5 10 C3.35 6.7 1.7 3.4 0 0 Z " fill="#00ADEE" transform="translate(340,0)"/>
<path d="M0 0 C1.12148438 -0.02835937 2.24296875 -0.05671875 3.3984375 -0.0859375 C7.2944531 0.47063616 8.94912378 1.51872763 11.625 4.375 C11.625 5.695 11.625 7.015 11.625 8.375 C12.718125 8.601875 13.81125 8.82875 14.9375 9.0625 C18.625 10.375 18.625 10.375 20.0625 13 C20.578125 13.78375 21.09375 14.5675 21.625 15.375 C24.4142843 15.83802119 26.77428576 15.6086651 29.625 15.375 C30.3125 17.0625 30.3125 17.0625 30.625 19.375 C30.150625 20.1175 29.67625 20.86 29.1875 21.625 C27.11240763 25.27716257 26.970688 28.25618987 27.625 32.375 C28.57226954 34.07219127 29.56728261 35.74435236 30.625 37.375 C30.8125 40.1875 30.8125 40.1875 30.625 42.375 C24.55533732 42.79359743 21.42267662 42.51844799 16.625 38.375 C13.71533631 35.00591573 12.38521795 32.59097578 12.3125 28.1875 C12.625 24.375 12.625 24.375 13.625 21.375 C11.2257767 26.02349515 11.42542591 30.28586074 11.625 35.375 C9.4375 36.125 9.4375 36.125 6.625 36.375 C1.92711665 33.69049523 0.23273504 30.45205803 -1.375 25.375 C-1.59452572 22.65001764 -1.51928919 20.11649469 -1.375 17.375 C-2.365 20.015 -3.355 22.655 -4.375 25.375 C-9.09789157 24.19427711 -9.09789157 24.19427711 -11.375 21.375 C-13.2042918 15.88712461 -13.35002242 9.65005232 -11.0625 4.3125 C-7.63544284 0.37773066 -5.0178376 0.05741233 0 0 Z M1.625 11.375 C0.965 12.695 0.305 14.015 -0.375 15.375 C0.945 14.055 2.265 12.735 3.625 11.375 C2.965 11.375 2.305 11.375 1.625 11.375 Z " fill="#00ADEF" transform="translate(623.375,119.625)"/>
<path d="M0 0 C6.7039198 0.1638736 10.31931425 1.09098811 15 6 C17.30464037 9.03793504 17.40663814 12.18552352 17.3359375 15.9609375 C16.77894176 19.34177208 15.1184867 21.35189163 13 24 C15.52588702 21.63707344 16.88820837 20.33537489 18 17 C18.0433573 15.47978483 18.04007394 13.95780527 18 12.4375 C17.88923557 8.22152886 17.88923557 8.22152886 19 6 C22.50020422 6.3000175 23.94904191 6.95733741 26.6875 9.25 C29.89237052 13.06119738 30.87054502 15.55010426 31.3125 20.5 C30.98086087 24.21435828 30.12098161 25.99527605 28 29 C28 29.33 28 29.66 28 30 C31.17218843 26.37464179 32.42902597 22.48849722 34 18 C36.3125 18.1875 36.3125 18.1875 39 19 C42.9859011 24.28606407 42.80235641 29.63405134 42 36 C39.89891357 39.75194005 37.88634863 41.34865773 34 43 C29.26662931 43.74012705 25.80266433 43.40133217 21.5 41.25 C19 39 19 39 18.0625 36.8125 C18.041875 36.214375 18.02125 35.61625 18 35 C18.33 34.67 18.66 34.34 19 34 C17.72125 33.690625 16.4425 33.38125 15.125 33.0625 C12.89898325 32.52394756 11.05260001 32.0263 9 31 C8.375 28.9375 8.375 28.9375 8 27 C7.071875 27.20625 6.14375 27.4125 5.1875 27.625 C2 28 2 28 -1 26 C0.875 21.25 0.875 21.25 2 19 C2.58325749 13.29080651 2.11390333 9.87393565 -1 5 C-0.6875 2.1875 -0.6875 2.1875 0 0 Z " fill="#00ADEF" transform="translate(682,64)"/>
<path d="M0 0 C2.97 0 5.94 0 9 0 C9 4.29 9 8.58 9 13 C9.66 12.67 10.32 12.34 11 12 C16.00326774 11.38012612 19.76448874 11.15058601 24 14.0625 C27.62943064 19.39322625 28.55912999 24.62591813 28 31 C26.81163797 35.40345108 25.56598342 39.00633491 22 42 C18.04732381 43.31755873 14.13551225 43.55109994 10.0625 42.5 C6.79873103 41.70878328 3.3583049 42 0 42 C0 28.14 0 14.28 0 0 Z M10.33203125 20.15234375 C8.50201493 22.69075349 8.63382997 24.46202357 8.6875 27.5625 C8.69136719 28.53316406 8.69523438 29.50382812 8.69921875 30.50390625 C8.76010114 33.17172335 8.76010114 33.17172335 11 35 C13.5 35.33333333 13.5 35.33333333 16 35 C18.60186108 32.39813892 18.29810177 31.17645645 18.3125 27.5625 C18.32925781 26.59441406 18.34601562 25.62632812 18.36328125 24.62890625 C18.20670082 21.98274386 18.20670082 21.98274386 16.66796875 20.15234375 C14.27943675 18.50218698 12.72056325 18.50218698 10.33203125 20.15234375 Z " fill="#060909" transform="translate(995,224)"/>
<path d="M0 0 C2.97 0 5.94 0 9 0 C9.33 4.29 9.66 8.58 10 13 C10.66 12.67 11.32 12.34 12 12 C16.81681708 11.33756936 19.99339784 11.26601926 24 14.1875 C26.8962474 18.26034791 27.12929638 21.95906045 27.09765625 26.86328125 C27.09443359 27.74951172 27.09121094 28.63574219 27.08789062 29.54882812 C27.07951172 30.46083984 27.07113281 31.37285156 27.0625 32.3125 C27.05798828 33.24384766 27.05347656 34.17519531 27.04882812 35.13476562 C27.03709254 37.42320487 27.01915861 39.71161086 27 42 C23.7 42 20.4 42 17 42 C16.67 35.07 16.34 28.14 16 21 C12.25308553 19.60229416 12.25308553 19.60229416 10 21 C9.67 27.93 9.34 34.86 9 42 C6.03 42 3.06 42 0 42 C0 28.14 0 14.28 0 0 Z " fill="#060909" transform="translate(933,224)"/>
<path d="M0 0 C2.97 0 5.94 0 9 0 C9.33 7.59 9.66 15.18 10 23 C11.98 22.67 13.96 22.34 16 22 C16.02505615 21.36908447 16.0501123 20.73816895 16.07592773 20.08813477 C16.19154137 17.24603175 16.31442316 14.40428917 16.4375 11.5625 C16.47681641 10.56927734 16.51613281 9.57605469 16.55664062 8.55273438 C16.59853516 7.60849609 16.64042969 6.66425781 16.68359375 5.69140625 C16.72025146 4.81685791 16.75690918 3.94230957 16.79467773 3.04125977 C17 1 17 1 18 0 C19.8125 -0.1328125 19.8125 -0.1328125 22 -0.125 C22.721875 -0.12757813 23.44375 -0.13015625 24.1875 -0.1328125 C26 0 26 0 27 1 C27.08775605 3.14558827 27.10695219 5.29404421 27.09765625 7.44140625 C27.09443359 8.74658203 27.09121094 10.05175781 27.08789062 11.39648438 C27.07953401 12.7851569 27.07106905 14.17382877 27.0625 15.5625 C27.05748666 16.95507656 27.05292347 18.34765481 27.04882812 19.74023438 C27.03699434 23.1601987 27.0205088 26.58007844 27 30 C26.31292969 29.98839844 25.62585938 29.97679687 24.91796875 29.96484375 C24.01691406 29.95582031 23.11585938 29.94679688 22.1875 29.9375 C21.29417969 29.92589844 20.40085937 29.91429687 19.48046875 29.90234375 C16.86586209 29.88990033 16.86586209 29.88990033 14 31 C8.99598565 31.37066773 6.01698676 31.09881835 2 28 C-0.29755922 24.55366118 -0.23643976 23.28931609 -0.1953125 19.23828125 C-0.18886719 18.12001953 -0.18242188 17.00175781 -0.17578125 15.84960938 C-0.15902344 14.68236328 -0.14226563 13.51511719 -0.125 12.3125 C-0.11597656 11.13365234 -0.10695313 9.95480469 -0.09765625 8.74023438 C-0.07406423 5.82661974 -0.0411454 2.91341108 0 0 Z " fill="#060909" transform="translate(964,236)"/>
<path d="M0 0 C3.52520166 1.69411532 5.55115804 3.97738069 7.13671875 7.58984375 C8.23710429 11.93661559 8.32995648 15.97213156 8.3125 20.4375 C8.32861328 21.25798828 8.34472656 22.07847656 8.36132812 22.92382812 C8.36623379 29.07062612 7.44832562 33.93959297 3.5 38.875 C-0.17732848 41.63299636 -4.61453911 41.46343422 -9 41 C-12.58278015 39.56688794 -13.73761916 38.43105423 -15.75 35.125 C-19.38346521 26.04133697 -19.21625608 15.21873848 -15.9609375 6.03515625 C-12.75731717 -0.74974696 -6.76362463 -1.24450693 0 0 Z M-10.3125 5.75 C-13.51698815 10.02265087 -13.21171906 14.63021754 -13.25 19.8125 C-13.270625 20.49892578 -13.29125 21.18535156 -13.3125 21.89257812 C-13.35100868 26.98053729 -12.41679624 30.49956401 -10 35 C-6.75173326 37.16551116 -5.76905843 37.55156953 -2 37 C0.79035429 34.7522146 1.85910005 33.42269984 3 30 C3.25105336 26.90025179 3.23122942 23.79637729 3.25 20.6875 C3.270625 19.84509766 3.29125 19.00269531 3.3125 18.13476562 C3.34458362 13.00539617 2.89825572 9.42476419 0 5 C-3.7697492 3.1151254 -6.95312114 3.20776735 -10.3125 5.75 Z " fill="#060909" transform="translate(907,226)"/>
<path d="M0 0 C1.65 0 3.3 0 5 0 C5 8.91 5 17.82 5 27 C7.31 27 9.62 27 12 27 C12 27.99 12 28.98 12 30 C9.69 30 7.38 30 5 30 C5 33.3 5 36.6 5 40 C3.68 40 2.36 40 1 40 C1 36.7 1 33.4 1 30 C-5.27 30 -11.54 30 -18 30 C-16.54295278 24.1718111 -13.17040641 19.58024651 -9.93603516 14.58984375 C-8.75156153 12.75242233 -7.59274758 10.90034183 -6.43359375 9.046875 C-5.68122146 7.87921851 -4.92736456 6.712517 -4.171875 5.546875 C-3.4922168 4.48307617 -2.81255859 3.41927734 -2.11230469 2.32324219 C-1.06671387 1.1732373 -1.06671387 1.1732373 0 0 Z M0 8 C-1.98448676 10.7009033 -3.7484371 13.55765387 -5.5625 16.375 C-6.08263672 17.1690625 -6.60277344 17.963125 -7.13867188 18.78125 C-7.63044922 19.54179687 -8.12222656 20.30234375 -8.62890625 21.0859375 C-9.08338135 21.7876709 -9.53785645 22.4894043 -10.00610352 23.21240234 C-11.16197894 24.95044458 -11.16197894 24.95044458 -11 27 C-7.04 27 -3.08 27 1 27 C1 20.73 1 14.46 1 8 C0.67 8 0.34 8 0 8 Z " fill="#060909" transform="translate(862,226)"/>
<path d="M0 0 C3.43336922 1.62562275 5.46850274 3.89271404 7.125 7.34375 C8.85212086 12.58679547 9.07927271 18.23492115 7.0546875 23.421875 C5.25041693 26.53112113 3.67862375 28.57139552 0.625 30.5 C-5.39847572 31.64732871 -9.81540557 31.45639628 -15 28 C-19.06441126 24.04254693 -19.36219191 20.6889822 -19.625 15.0625 C-19.47906834 9.31036043 -18.66789176 6.1259735 -14.5078125 2.13671875 C-10.23748527 -1.08262121 -5.11731113 -0.64237051 0 0 Z M-14 9 C-15.5918931 13.7756793 -15.53061766 17.59386321 -13.75 22.3125 C-11.57762678 25.66854871 -11.57762678 25.66854871 -8 27 C-3.99184723 26.92842584 -1.76094388 26.58534144 1.4375 24.125 C3.78694782 19.42610435 3.85794433 15.14766597 3 10 C1.68933543 6.961114 0.72140918 6.14238595 -2 4 C-7.91208463 2.83869766 -10.34577103 4.37847512 -14 9 Z " fill="#060909" transform="translate(576,236)"/>
<path d="M0 0 C3.87806901 1.71338749 5.67129719 4.28542867 7.4375 8.125 C8.33025986 14.27512347 8.1154098 20.18212261 5.8125 26 C3.00394502 29.09909515 0.1851771 30.68721975 -3.9921875 31.28515625 C-9.58606721 31.52790952 -12.62667842 30.03427564 -16.75 26.5 C-20.70603222 21.75276133 -19.48242806 13.75609373 -19 8 C-17.85918343 4.69576962 -16.2143758 2.74912793 -13.1953125 0.88671875 C-8.9309067 -0.83573697 -4.50045047 -0.62524348 0 0 Z M-12.4375 6.3125 C-14.9836744 10.69191997 -15.34060055 13.97614196 -15 19 C-13.80462661 22.16773947 -12.87648798 24.28002773 -10.25 26.4375 C-6.77600177 27.30599956 -4.43702211 26.98200632 -1 26 C2.22743264 22.68981267 3.25646484 19.95583576 3.4375 15.4375 C3.21008058 10.43427287 1.52026535 7.52026535 -2 4 C-7.83703223 3.19343693 -7.83703223 3.19343693 -12.4375 6.3125 Z " fill="#060909" transform="translate(790,236)"/>
<path d="M0 0 C3.125 1.0625 3.125 1.0625 5 3 C5.8125 6.6875 5.8125 6.6875 6 10 C4.68 10 3.36 10 2 10 C1.5875 9.175 1.175 8.35 0.75 7.5 C0.1725 6.675 -0.405 5.85 -1 5 C-3.79071092 4.52840869 -6.14585841 4.76605397 -9 5 C-9.33 6.65 -9.66 8.3 -10 10 C-9.09636719 10.32613281 -8.19273437 10.65226563 -7.26171875 10.98828125 C-5.49248047 11.64376953 -5.49248047 11.64376953 -3.6875 12.3125 C-2.51574219 12.74175781 -1.34398437 13.17101562 -0.13671875 13.61328125 C4.29289062 15.5715768 4.29289062 15.5715768 6 18 C6.77333333 24.96 6.77333333 24.96 4.1875 28.4375 C0.09632265 31.35976954 -4.12709343 31.52505799 -9 31 C-13.0226217 29.43564712 -14.59149109 28.61276337 -17 25 C-17 23.68 -17 22.36 -17 21 C-13.75091983 21.36100891 -12.34484249 21.63290961 -10.0625 24.0625 C-8.09334334 26.29475691 -8.09334334 26.29475691 -4.9375 26.375 C-1.81457626 26.19767963 -1.81457626 26.19767963 1 24 C0.78384533 22.03352873 0.78384533 22.03352873 0 20 C-1.64511015 18.97174892 -1.64511015 18.97174892 -3.6875 18.4375 C-13.13316679 15.30024981 -13.13316679 15.30024981 -16 11 C-16.59111649 7.11552021 -16.29788155 5.47250177 -14.1875 2.125 C-9.527421 -0.98171933 -5.44360166 -0.72744827 0 0 Z " fill="#060909" transform="translate(635,236)"/>
<path d="M0 0 C1.34061543 0.30271961 2.67405895 0.63837971 4 1 C6.0745356 1.1490712 6.0745356 1.1490712 8 0 C11.38432759 -0.41272288 14.62274903 -0.49649408 18 0 C20.87411615 2.59371457 21.78516202 4.35548606 23 8 C23.08178114 9.70016844 23.10749501 11.40336297 23.09765625 13.10546875 C23.09443359 14.08837891 23.09121094 15.07128906 23.08789062 16.08398438 C23.07951172 17.10814453 23.07113281 18.13230469 23.0625 19.1875 C23.05798828 20.22326172 23.05347656 21.25902344 23.04882812 22.32617188 C23.0370401 24.88417266 23.02058515 27.44205733 23 30 C21.35 30 19.7 30 18 30 C17.97494385 29.31897217 17.9498877 28.63794434 17.92407227 27.9362793 C17.80809048 24.85316245 17.68537384 21.77034954 17.5625 18.6875 C17.52318359 17.61564453 17.48386719 16.54378906 17.44335938 15.43945312 C17.40146484 14.41142578 17.35957031 13.38339844 17.31640625 12.32421875 C17.27974854 11.37635498 17.24309082 10.42849121 17.20532227 9.4519043 C17.08569813 6.863829 17.08569813 6.863829 16 4 C14.1128125 4.12375 14.1128125 4.12375 12.1875 4.25 C11.47980469 4.29640625 10.77210938 4.3428125 10.04296875 4.390625 C7.21446382 5.23430907 6.5353667 6.51437157 5 9 C4.50241248 11.40554294 4.50241248 11.40554294 4.48828125 13.984375 C4.45283203 14.91894531 4.41738281 15.85351562 4.38085938 16.81640625 C4.35830078 17.78449219 4.33574219 18.75257813 4.3125 19.75 C4.27833984 20.73355469 4.24417969 21.71710938 4.20898438 22.73046875 C4.12664727 25.15353199 4.05745162 27.57623998 4 30 C2.35 30 0.7 30 -1 30 C-1.02465746 25.8882744 -1.04283959 21.77657722 -1.05493164 17.66479492 C-1.0599708 16.26504772 -1.06680216 14.8653058 -1.07543945 13.46557617 C-1.0875232 11.45754223 -1.09269807 9.44947043 -1.09765625 7.44140625 C-1.10289307 6.23170166 -1.10812988 5.02199707 -1.11352539 3.77563477 C-1 1 -1 1 0 0 Z " fill="#050A0A" transform="translate(590,236)"/>
<path d="M0 0 C1.32 0 2.64 0 4 0 C4.02505615 0.65073486 4.0501123 1.30146973 4.07592773 1.97192383 C4.19193702 4.91898046 4.31464115 7.8657213 4.4375 10.8125 C4.47681641 11.83666016 4.51613281 12.86082031 4.55664062 13.91601562 C4.59853516 14.89892578 4.64042969 15.88183594 4.68359375 16.89453125 C4.72025146 17.80050049 4.75690918 18.70646973 4.79467773 19.63989258 C4.9208205 22.15048782 4.9208205 22.15048782 6 25 C10.20594226 25.72795155 12.80104745 26.04973814 17 25 C17.33 17.08 17.66 9.16 18 1 C19.65 0.67 21.3 0.34 23 0 C23 9.9 23 19.8 23 30 C20.2775 30.20625 17.555 30.4125 14.75 30.625 C13.47334473 30.73062256 13.47334473 30.73062256 12.17089844 30.83837891 C4.88357716 31.32684691 4.88357716 31.32684691 2 29 C-0.10723346 25.6767271 -0.23501415 23.03138708 -0.1953125 19.140625 C-0.18886719 18.02558594 -0.18242188 16.91054687 -0.17578125 15.76171875 C-0.15902344 14.60285156 -0.14226563 13.44398438 -0.125 12.25 C-0.11597656 11.07566406 -0.10695313 9.90132812 -0.09765625 8.69140625 C-0.07410063 5.79406464 -0.04120652 2.89713559 0 0 Z " fill="#050909" transform="translate(684,236)"/>
<path d="M0 0 C1.34061543 0.30271961 2.67405895 0.63837971 4 1 C6.0745356 1.1490712 6.0745356 1.1490712 8 0 C10.2421875 -0.2734375 10.2421875 -0.2734375 12.875 -0.375 C13.73867188 -0.42398438 14.60234375 -0.47296875 15.4921875 -0.5234375 C19.11588143 0.23290983 19.99946627 1.9584042 22 5 C22.45410156 7.86254883 22.45410156 7.86254883 22.390625 10.95703125 C22.37128906 12.62475586 22.37128906 12.62475586 22.3515625 14.32617188 C22.31804688 15.47666016 22.28453125 16.62714844 22.25 17.8125 C22.23195313 18.98232422 22.21390625 20.15214844 22.1953125 21.35742188 C22.1482644 24.2391178 22.08253709 27.11913797 22 30 C20.68 30 19.36 30 18 30 C17.98018066 29.34926514 17.96036133 28.69853027 17.93994141 28.02807617 C17.84470701 25.08080849 17.73502182 22.13425115 17.625 19.1875 C17.5940625 18.16333984 17.563125 17.13917969 17.53125 16.08398438 C17.49257813 15.10107422 17.45390625 14.11816406 17.4140625 13.10546875 C17.36693115 11.74651489 17.36693115 11.74651489 17.31884766 10.36010742 C17.13972081 7.73474608 17.13972081 7.73474608 15 5 C10.40083463 4.4150837 10.40083463 4.4150837 6.30932617 6.2043457 C4.57565583 8.58195998 4.57288117 10.17831136 4.48828125 13.10546875 C4.43510742 14.57983398 4.43510742 14.57983398 4.38085938 16.08398438 C4.34702148 17.62022461 4.34702148 17.62022461 4.3125 19.1875 C4.27833984 20.22326172 4.24417969 21.25902344 4.20898438 22.32617188 C4.12647358 24.8840066 4.05733428 27.44149723 4 30 C2.35 30 0.7 30 -1 30 C-1.02465746 25.8882744 -1.04283959 21.77657722 -1.05493164 17.66479492 C-1.0599708 16.26504772 -1.06680216 14.8653058 -1.07543945 13.46557617 C-1.0875232 11.45754223 -1.09269807 9.44947043 -1.09765625 7.44140625 C-1.10289307 6.23170166 -1.10812988 5.02199707 -1.11352539 3.77563477 C-1 1 -1 1 0 0 Z " fill="#070909" transform="translate(804,236)"/>
<path d="M0 0 C4.09250866 2.08801462 4.79027632 3.4007895 6.3125 7.75 C6.539375 8.8225 6.76625 9.895 7 11 C5.35 11 3.7 11 2 11 C1.34 9.02 0.68 7.04 0 5 C-1.43739513 4.97287934 -2.87493863 4.95354933 -4.3125 4.9375 C-5.11300781 4.92589844 -5.91351562 4.91429687 -6.73828125 4.90234375 C-9.16861334 4.90342145 -9.16861334 4.90342145 -12 6 C-13.10815655 14.42606478 -13.10815655 14.42606478 -12 22.75 C-10.07635511 25.29449333 -10.07635511 25.29449333 -6.5625 26.125 C-2.9746649 26.34297333 -2.9746649 26.34297333 -0.625 24.1875 C1.01912519 22.10705832 1.01912519 22.10705832 2 20 C3.65 20.33 5.3 20.66 7 21 C4.81848929 27.42333709 4.81848929 27.42333709 1.25 29.9375 C-3.71074998 31.55928365 -7.31178915 31.58438068 -12.25 29.875 C-16.28574249 27.1233574 -17.48245602 24.3951454 -18.50390625 19.66796875 C-19.35840715 13.81238889 -19.02177448 9.16318947 -16 4 C-11.83057893 -1.21177633 -6.18079515 -0.90155959 0 0 Z " fill="#060808" transform="translate(547,236)"/>
<path d="M0 0 C3.71451719 2.52587169 4.74673579 3.96746132 5.8125 8.3125 C5.874375 9.199375 5.93625 10.08625 6 11 C3.6875 10.8125 3.6875 10.8125 1 10 C0.566875 9.154375 0.13375 8.30875 -0.3125 7.4375 C-1.70556692 4.86602983 -1.70556692 4.86602983 -3.85546875 4.49609375 C-6.06193177 4.37150294 -7.85512361 4.4682494 -10 5 C-13.24547494 7.94121167 -13.27431565 11.31919745 -13.5 15.5 C-13.37729518 19.44789427 -13.11429674 20.81989605 -10.9375 24.25 C-8.05019079 26.28976011 -8.05019079 26.28976011 -4.375 26.125 C-0.33397051 24.77799017 0.05254417 23.61670368 2 20 C3.32 20 4.64 20 6 20 C5.68031467 23.51653861 5.37757864 25.53431968 3.125 28.3125 C-0.33025316 31.05637751 -3.5865554 31.35750991 -7.9375 31.26953125 C-11.52031025 30.80132309 -13.38486885 29.43268014 -16 27 C-19.47729259 20.95082308 -19.54412803 15.15594255 -18.375 8.375 C-14.89358702 -0.17028641 -8.5997963 -1.62309702 0 0 Z " fill="#060909" transform="translate(731,236)"/>
<path d="M0 0 C1.65 0 3.3 0 5 0 C5 2.31 5 4.62 5 7 C6.65 7 8.3 7 10 7 C10.33 8.32 10.66 9.64 11 11 C9.02 11 7.04 11 5 11 C5.33 18.26 5.66 25.52 6 33 C7.65 33.33 9.3 33.66 11 34 C11 35.32 11 36.64 11 38 C4.375 38.25 4.375 38.25 1 36 C-0.11811415 33.02423795 -0.11689032 30.17001242 -0.09765625 27.015625 C-0.09282227 25.61376953 -0.09282227 25.61376953 -0.08789062 24.18359375 C-0.07951172 23.21550781 -0.07113281 22.24742187 -0.0625 21.25 C-0.05798828 20.26644531 -0.05347656 19.28289062 -0.04882812 18.26953125 C-0.03706483 15.84629209 -0.02062684 13.42317727 0 11 C-1.65 11 -3.3 11 -5 11 C-5 9.68 -5 8.36 -5 7 C-3.35 7 -1.7 7 0 7 C0 4.69 0 2.38 0 0 Z " fill="#070909" transform="translate(744,229)"/>
<path d="M0 0 C1.65 0 3.3 0 5 0 C5 2.31 5 4.62 5 7 C6.98 7 8.96 7 11 7 C11 8.32 11 9.64 11 11 C9.02 11 7.04 11 5 11 C5 18.26 5 25.52 5 33 C6.98 33.33 8.96 33.66 11 34 C11 35.32 11 36.64 11 38 C4.52369077 38.36658354 4.52369077 38.36658354 2.125 36.6875 C0.01952752 33.52929128 -0.11994168 30.79037706 -0.09765625 27.11328125 C-0.09443359 26.17548828 -0.09121094 25.23769531 -0.08789062 24.27148438 C-0.07951172 23.29501953 -0.07113281 22.31855469 -0.0625 21.3125 C-0.05798828 20.32443359 -0.05347656 19.33636719 -0.04882812 18.31835938 C-0.03704303 15.87884526 -0.02059011 13.43945311 0 11 C-1.65 11 -3.3 11 -5 11 C-4.67 9.68 -4.34 8.36 -4 7 C-2.68 7 -1.36 7 0 7 C0 4.69 0 2.38 0 0 Z " fill="#050A0A" transform="translate(649,229)"/>
<path d="M0 0 C1.2065625 0.2475 1.2065625 0.2475 2.4375 0.5 C4.97658116 1.26597109 4.97658116 1.26597109 7 0 C9.3329866 -0.04022391 11.66706666 -0.04320247 14 0 C14 1.32 14 2.64 14 4 C12.329375 4.4021875 12.329375 4.4021875 10.625 4.8125 C6.78159049 5.65809019 6.78159049 5.65809019 5 9 C4.63423946 11.31923274 4.63423946 11.31923274 4.5859375 13.88671875 C4.54726563 14.82451172 4.50859375 15.76230469 4.46875 16.72851562 C4.4378125 17.70498047 4.406875 18.68144531 4.375 19.6875 C4.33632813 20.67556641 4.29765625 21.66363281 4.2578125 22.68164062 C4.16354133 25.12090707 4.07793782 27.56016595 4 30 C2.35 30 0.7 30 -1 30 C-1.02465746 25.8882744 -1.04283959 21.77657722 -1.05493164 17.66479492 C-1.0599708 16.26504772 -1.06680216 14.8653058 -1.07543945 13.46557617 C-1.0875232 11.45754223 -1.09269807 9.44947043 -1.09765625 7.44140625 C-1.10289307 6.23170166 -1.10812988 5.02199707 -1.11352539 3.77563477 C-1 1 -1 1 0 0 Z " fill="#050808" transform="translate(666,236)"/>
<path d="M0 0 C1.32 0 2.64 0 4 0 C4 9.9 4 19.8 4 30 C2.68 30 1.36 30 0 30 C0 20.1 0 10.2 0 0 Z " fill="#060909" transform="translate(761,236)"/>
<path d="M0 0 C1.65 0 3.3 0 5 0 C4.67 1.65 4.34 3.3 4 5 C2.35 4.67 0.7 4.34 -1 4 C-0.67 2.68 -0.34 1.36 0 0 Z " fill="#050808" transform="translate(878,262)"/>
<path d="M0 0 C1.65 0.33 3.3 0.66 5 1 C4.67 2.32 4.34 3.64 4 5 C2.35 4.67 0.7 4.34 -1 4 C-0.67 2.68 -0.34 1.36 0 0 Z " fill="#060909" transform="translate(761,226)"/>
</svg>
